<svg xmlns="http://www.w3.org/2000/svg" width="1658" height="1658" style="shape-rendering:geometricPrecision;text-rendering:geometricPrecision;image-rendering:optimizeQuality;fill-rule:evenodd;clip-rule:evenodd"><path fill="#880304" d="M803.414 85.596c203.649-7.245 381.39 56.065 533.201 189.928 147.132 136.776 227.483 305.99 241.043 507.643 7.948 204.034-55.194 382.1-189.426 534.203-137.03 147.433-306.581 227.774-508.646 241.044-203.674 7.737-381.408-55.405-533.201-189.427-147.136-136.778-227.484-305.99-241.043-507.644-7.95-204.038 55.192-382.107 189.426-534.203C431.99 179.78 601.538 99.264 803.414 85.596Z" style="opacity:.997;stroke-width:1.00226" transform="matrix(1.1186 0 0 1.1186 -112.154 -91.16)"/><path d="M1158.5 219.5a345.942 345.942 0 0 1 82 7.5c11.06 3.873 22.06 7.707 33 11.5-2.38 1.571-5.05 2.404-8 2.5-49.82-2.077-91.48 15.089-125 51.5a123.27 123.27 0 0 0 19 12.5c39.08 34.12 51.25 76.286 36.5 126.5a121.726 121.726 0 0 1-14 26c-.67 1-.67 2 0 3 89.18 87.046 139.85 193.046 152 318 9.62 160.06-42.55 295.73-156.5 407 2.98 4.14 6.14 8.14 9.5 12 17.95 30.59 30.95 63.25 39 98 5.68 38.17.02 74.51-17 109-17.76 31.8-40.92 59.14-69.5 82-.33-.5-.67-1-1-1.5a530.754 530.754 0 0 0 20.5-47.5c6.56-26.15 7.23-52.48 2-79-.01-7.35-3.51-10.19-10.5-8.5-53.06 26.91-100.23 19.07-141.5-23.5a84.785 84.785 0 0 0-13-17c-1.95-4.92-4.616-9.26-8-13-139.415 42.45-272.915 28.62-400.5-41.5-110.242-64.93-186.075-158.1-227.5-279.5a440.934 440.934 0 0 1-10.5-40 527.555 527.555 0 0 1-92-11.5c-22.53-7.432-43.53-17.765-63-31-32.288-26.98-54.121-60.813-65.5-101.5a229.91 229.91 0 0 1-10.5-46c18.489 30.331 42.822 55.497 73 75.5a652.55 652.55 0 0 1 23 10c5.118.888 10.118.555 15-1l1.5-1.5c2.02-19.081 6.687-37.415 14-55 22.926-38.06 56.76-58.06 101.5-60 39.106-159.806 132.44-275.639 280-347.5 119.174-52.599 241.007-59.432 365.5-20.5 20.59-35.614 46.76-66.78 78.5-93.5 26.24-19.246 55.57-30.08 88-32.5z" style="opacity:1" transform="matrix(1.1186 0 0 1.1186 -112.154 -91.16)"/><path fill="#880304" d="M809.5 352.5c59.509-2.495 117.509 5.505 174 24-4.33 48.157 13.67 85.657 54 112.5 22.56 12.157 46.56 16.157 72 12 17-2.663 32.66-8.663 47-18 1-.667 2-.667 3 0 93.19 91.601 141.19 203.101 144 334.5-1.46 136.372-51.12 251.54-149 345.5-24.92-12.98-51.59-18.32-80-16-49.72 11.72-79.885 42.55-90.5 92.5a150.336 150.336 0 0 0-1.5 26c-147.171 44.57-284.838 24.74-413-59.5-95.57-67.9-158.403-158.74-188.5-272.5-.667-2-.667-4 0-6 34.796-14.13 57.796-39.13 69-75 9.806-50.518-6.027-90.684-47.5-120.5a127.897 127.897 0 0 0-24-10.5c29.662-128.776 99.995-228.609 211-299.5 67.686-41.174 141.02-64.341 220-69.5z" style="opacity:1" transform="matrix(1.1186 0 0 1.1186 -112.154 -91.16)"/><path d="M831.5 685.5c56.597-1.478 100.43 21.188 131.5 68 23.556 45.475 24.556 91.475 3 138-8.613 14.953-19.779 27.787-33.5 38.5a451.517 451.517 0 0 1-23 17c-34.249 16.479-69.916 20.146-107 11-46.695-16.694-77.861-48.527-93.5-95.5-14.613-67.884 6.887-120.718 64.5-158.5 18.278-9.875 37.611-16.042 58-18.5z" style="opacity:1" transform="matrix(1.1186 0 0 1.1186 -112.154 -91.16)"/></svg>