<?xml version="1.0" encoding="UTF-8"?>
<!-- Created with Inkscape (http://www.inkscape.org/) -->
<svg width="512" height="512" version="1.1" viewBox="0 0 512 512" xmlns="http://www.w3.org/2000/svg">
 <g transform="matrix(.40319 0 0 .40319 -35.983 -87.256)" clip-rule="evenodd" fill="#8bb91c" fill-rule="evenodd" image-rendering="optimizeQuality" shape-rendering="geometricPrecision">
  <path d="m1154.5 219.5c41.62-3.134 81.62 3.199 120 19-1.21 1.569-2.88 2.402-5 2.5-38.38-1.326-73.38 8.674-105 30-8.65 6.653-16.65 13.986-24 22 49.78 28.088 69.62 70.588 59.5 127.5-3.9 13.967-10.07 26.8-18.5 38.5 101.22 98.677 152.56 219.18 154 361.5-1.84 143.94-54.17 265.61-157 365 8.16 10.32 15.33 21.32 21.5 33 3.56 11.78 8.22 23.11 14 34 14.16 37.02 17.5 75.02 10 114-9.2 32.07-24.86 60.4-47 85-9.14 10.14-18.64 19.97-28.5 29.5-2.89 2.56-6.06 4.72-9.5 6.5-0.69-0.53-1.19-1.19-1.5-2 8.77-17.15 16.27-34.81 22.5-53 5.97-25.32 5.97-50.65 0-76-0.62-5.3-3.45-7.47-8.5-6.5-47.95 24.88-92.62 20.21-134-14-7.92-7.91-15.08-16.41-21.5-25.5-2.527-3.72-4.527-7.72-6-12-0.561-0.52-1.228-0.86-2-1-79.563 24.72-160.4 29.89-242.5 15.5-150.22-30.46-264.72-110.96-343.5-241.5-24.781-42.57-42.614-87.901-53.5-136-39.163-0.046-77.163-6.546-114-19.5-14.475-6.4-28.142-14.067-41-23-17.874-15.616-33.041-33.45-45.5-53.5-11.572-23.715-20.572-48.381-27-74-1.883-6.878-2.716-13.878-2.5-21 1.322-0.17 2.489 0.163 3.5 1 0.25 3.254 1.25 6.254 3 9 13.025 19.36 28.525 36.527 46.5 51.5 8.184 7.177 17.184 13.177 27 18 5.561 0.643 10.561 2.643 15 6 5.016 1.921 10.016 1.921 15 0 1.201-0.903 2.035-2.069 2.5-3.5 3.108-51.749 28.608-87.249 76.5-106.5 12.913-2.739 25.913-4.905 39-6.5 32.481-138.24 108.48-245.07 228-320.5 115.63-68.216 239.3-88.549 371-61 15.509 3.544 30.842 7.71 46 12.5 11.07-17.119 22.91-33.785 35.5-50 16.37-20.707 35.53-38.207 57.5-52.5 21.84-12.446 45.17-19.946 70-22.5zm-324 133c52.264 0.1 103.26 8.1 153 24-4.743 52.686 15.924 91.852 62 117.5 31.44 11.568 62.78 11.235 94-1 6.57-2.867 12.74-6.367 18.5-10.5 94.34 92.073 142.84 204.41 145.5 337-2.51 135.97-52.67 250.64-150.5 344-12.22-8.3-25.72-13.47-40.5-15.5-56.4-7.39-96.9 14.45-121.5 65.5-6.365 16.38-9.532 33.38-9.5 51-115.65 36.45-228.98 30.28-340-18.5-118.34-56.34-200.51-145.84-246.5-268.5-5.44-15.988-10.274-32.154-14.5-48.5 25.722-11.052 45.889-28.552 60.5-52.5 3.348-8.691 6.682-17.358 10-26 2.198-18.72 1.865-37.386-1-56-11.933-36.266-35.767-61.1-71.5-74.5 36.908-149.56 124.58-257.89 263-325 60.227-27.009 123.23-41.176 189-42.5z" opacity=".981"/>
  <path d="m836.5 684.5c20.089 1.118 39.755 4.618 59 10.5 12.542 4.605 23.875 11.271 34 20 39.429 32.923 56.595 75.089 51.5 126.5-3.054 35.949-18.554 65.116-46.5 87.5-9.136 7.734-18.803 14.734-29 21-77.902 30.25-139.74 10.75-185.5-58.5-16.434-33.595-20.101-68.595-11-105 4.39-18.448 12.723-34.781 25-49 11.737-13.75 25.237-25.25 40.5-34.5 19.591-10.142 40.258-16.308 62-18.5z" opacity=".993"/>
 </g>
</svg>
